<!-- by TradingView --><svg width="18" height="18" viewBox="0 0 18 18" xmlns="http://www.w3.org/2000/svg"><path fill="#F0F3FA" d="M0 0h18v18H0z"/><path d="m11.21 7.44-.86-.64-.16-.13.09-.14c.3-.54.22-1.22-.2-1.68A1.45 1.45 0 0 0 7.8 6.64l-.02.02c-.22.18-.37.4-.47.66-.14.38-.19.83-.08 1.21a1.46 1.46 0 0 0 .69.87c-.02.12 0 .24.05.35a1.64 1.64 0 0 0 .35.53l.02.01c.1.2.18.47-.02.63a.52.52 0 0 1-.24.1.5.5 0 0 1-.25-.04 1.22 1.22 0 0 1-.3-.2 2.75 2.75 0 0 1-.52-.56l-.21-.3a2982.84 2982.84 0 0 1 .02-4.2 2.2 2.2 0 0 1 4.4.33v1.4Z" fill="#fff"/><path d="m10.2 6.67-.03.05h-.01a1.49 1.49 0 0 1-.67.48c-.36.12-.71.11-1.06-.03l-.05-.02a1.58 1.58 0 0 1-.59-.51 1.47 1.47 0 0 1 .6-2.14 1.45 1.45 0 0 1 1.7.35 1.47 1.47 0 0 1 .1 1.82Z"/><path d="M8.97 4.54a7.5 7.5 0 0 1 0 .1 1.24 1.24 0 0 1-.48-.1 1.24 1.24 0 0 1 .48-.1v.1ZM9.49 4.53a1.14 1.14 0 0 1-.45.11v-.2a1.4 1.4 0 0 1 .45.09ZM9.04 5.48v-.76a1.25 1.25 0 0 0 .54-.16l.14.07v.01a1.65 1.65 0 0 0-.42.82 1.75 1.75 0 0 1-.26.02ZM8.96 5.49a1.68 1.68 0 0 1-.26-.04 1.65 1.65 0 0 0-.42-.81l.11-.07a.02.02 0 0 1 .02 0 1.25 1.25 0 0 0 .56.15v.76Z" fill="#F4DA4C"/><path d="M9.99 4.84a1.44 1.44 0 0 1 .15.2 1.6 1.6 0 0 1-.76.4 1.59 1.59 0 0 1 .41-.75h.01l.19.15ZM8.62 5.44a1.58 1.58 0 0 1-.74-.42V5a1.4 1.4 0 0 1 .33-.32 1.57 1.57 0 0 1 .41.75Z" fill="#F4DA4C"/><path d="M7.83 5.08a1.65 1.65 0 0 0 .8.44h.01a1.78 1.78 0 0 1 .02.27H7.9a1.28 1.28 0 0 0-.16-.53v-.01l.09-.17ZM9.34 5.79v-.01a1.72 1.72 0 0 1 .03-.26 1.66 1.66 0 0 0 .82-.41l.07.14v.01a1.22 1.22 0 0 0-.16.53h-.76ZM10.3 5.34a1.39 1.39 0 0 1 .08.45h-.2c0-.16.05-.31.12-.45ZM7.7 5.35a1.1 1.1 0 0 1 .12.44h-.2a1.36 1.36 0 0 1 .09-.44ZM8.72 5.53h.02a1.48 1.48 0 0 0 .23.03v.22h-.23l-.02-.25ZM9.26 5.79h-.22v-.23l.24-.02-.02.24Z" fill="#EEC347"/><path d="m8.97 6.22-.28.03a1.69 1.69 0 0 0 .05-.39h.23v.36ZM10.13 6.62a2.2 2.2 0 0 0-.73-.34 1.68 1.68 0 0 1-.06-.42h.75a.01.01 0 0 1 .01 0v.04a1.2 1.2 0 0 0 .14.54v.01a.87.87 0 0 1-.1.17ZM10.28 6.36a1.26 1.26 0 0 1-.1-.5 7.97 7.97 0 0 1 .2 0 1.27 1.27 0 0 1-.1.5ZM7.72 5.86a10.23 10.23 0 0 1 .11 0 1.25 1.25 0 0 1-.1.5 1.25 1.25 0 0 1-.1-.5h.1ZM8.6 6.27c-.27.05-.53.16-.75.32l-.09-.14v-.01a1.2 1.2 0 0 0 .14-.58h.76c0 .15-.02.28-.05.4ZM9.32 6.26a5.68 5.68 0 0 0-.28-.04v-.36h.22c.01.14.03.27.06.4Z" fill="#DD7D3A"/><path d="m9.32 6.26.01.05-.3-.04v-.05a5.68 5.68 0 0 1 .29.04Z" fill="#1F1B21"/><path d="M9.33 6.31a1.65 1.65 0 0 0 .4.7.99.99 0 0 1-.25.12.78.78 0 0 0-.44-.22v-.64l.3.04ZM8.97 6.28v.62c-.2 0-.38.06-.53.2a.83.83 0 0 1-.16-.1c.19-.2.32-.43.39-.7l.3-.02ZM8.6 6.33a1.55 1.55 0 0 1-.4.63c-.13-.1-.23-.2-.32-.32a1.93 1.93 0 0 1 .71-.31ZM10.1 6.67a1.26 1.26 0 0 1-.3.3l-.01-.01a1.5 1.5 0 0 1-.38-.62c.25.07.48.18.7.33Z" fill="#EEC347"/><path d="M7.79 6.65a.1.1 0 0 1 .03.03c-.3.25-.49.59-.56.96-.06.26-.07.54 0 .8a1.4 1.4 0 0 0 .66.89c.14-.33.5-.5.82-.55a1.02 1.02 0 0 0-.34.71c.17.04.35.04.52 0a1.43 1.43 0 0 0 .42-.2v-.02l-.02-.2a.46.46 0 0 1 .28-.4h.01l.03.03a4.34 4.34 0 0 0 .07.24 2.65 2.65 0 0 0 .5-.99c0-.02.01-.04.04-.04h.01c.22.16.43.36.57.6.14.23.17.47-.01.7a.84.84 0 0 1-.46.31.57.57 0 0 1-.43-.07c-.11-.07-.18-.2-.23-.33v-.05l-.02-.05-.09-.28a.01.01 0 0 0 0-.01h-.01a.43.43 0 0 0-.21.42c0 .07.02.15.04.24l.03.14c.02.11.04.22-.01.32-.07.11-.24.14-.35.14-.3.02-.6-.06-.71-.36a.35.35 0 0 1-.02-.13 1.1 1.1 0 0 1 .26-.66.98.98 0 0 0-.64.48.34.34 0 0 0-.03.16v.06c.03.05.04.1.05.16a1.68 1.68 0 0 0 .38.56c.1.2.19.5 0 .68-.1.1-.27.16-.4.13a1.21 1.21 0 0 1-.6-.34 3.54 3.54 0 0 1-.58-.71v-.1a6.14 6.14 0 0 1 .34.46c.11.15.24.28.38.4.1.08.2.15.31.2a.5.5 0 0 0 .25.04c.1-.02.18-.05.24-.1.2-.16.11-.44.02-.63l-.02-.01a2.2 2.2 0 0 1-.35-.53.65.65 0 0 1-.05-.36c-.34-.2-.58-.5-.69-.86-.11-.38-.06-.83.08-1.2a1.6 1.6 0 0 1 .49-.68Z" fill="#1F1B21"/><path d="M7.82 6.68a1.58 1.58 0 0 0 .56.46.97.97 0 0 0-.27.57c-.28 0-.56-.04-.85-.07.07-.37.26-.71.56-.96Z" fill="#E18F3E"/><path d="m10.17 6.72.13.1c.24.2.49.37.73.56l-.5-.04-.96-.12-.03-.04a1.49 1.49 0 0 0 .63-.46Z" fill="#EEC347"/><path d="M8.97 6.96v.25c-.17 0-.32-.03-.47-.1.14-.1.3-.15.47-.15ZM9.43 7.15a1.32 1.32 0 0 1-.4.06v-.25l.13.04c.1.03.19.08.27.15Z" fill="#D54E33"/><path d="M8.43 7.17a.91.91 0 0 0-.26.55c-.02.2.02.4.12.58.2.35.6.5.98.32.3-.15.46-.48.45-.8a.92.92 0 0 0-.23-.62c.02 0 .04 0 .05-.02l.03.04c.09.11.14.23.18.35a1 1 0 0 1-.02.56.88.88 0 0 1-.34.48.77.77 0 0 1-.9 0 .97.97 0 0 1-.37-.89.97.97 0 0 1 .26-.57l.05.02Z" fill="#1F1B21"/><path d="M11.03 7.38a11.88 11.88 0 0 0 .18.12v.24a227.95 227.95 0 0 1-1.46-.17.98.98 0 0 0-.18-.35l.97.12.5.04Z" fill="#E18F3E"/><path d="M11.21 7.74v.74l-.38.02a2.13 2.13 0 0 0-.58-.6c-.03 0-.04.03-.05.05a2.7 2.7 0 0 1-.08.25l-.39-.07a1 1 0 0 0 .02-.56l.4.04 1.06.13Z" fill="#DD7D3A"/><path d="M8.12 7.72c-.04.35.1.69.38.89.26.2.61.2.89 0a.88.88 0 0 0 .34-.48l.4.07a2.65 2.65 0 0 1-.43.74 4.33 4.33 0 0 1-.09-.27.01.01 0 0 0-.01 0 .46.46 0 0 0-.28.4c0 .07 0 .13.02.2a.02.02 0 0 1 0 .02c-.14.09-.28.16-.42.2a1.16 1.16 0 0 1-.52 0 1.02 1.02 0 0 1 .35-.71c-.33.04-.7.23-.83.55a1.4 1.4 0 0 1-.66-.89 1.77 1.77 0 0 1 0-.8c.29.03.57.07.86.08Z" fill="#D86436"/><path d="M10.25 7.98c.3.22.84.73.56 1.14-.18.26-.48.46-.8.3a.33.33 0 0 1-.13-.09 1.09 1.09 0 0 1-.16-.32c.25-.3.43-.66.53-1.03Z" fill="#fff"/><path d="M11.21 8.48v1.63a12.64 12.64 0 0 0-.15.16c-.11.09-.25.08-.39.04-.12-.04-.23-.1-.34-.17l-.2-.15a.15.15 0 0 0-.13-.02c-.23-.04-.39-.07-.57-.12.05-.1.03-.2.01-.32l-.03-.14c-.02-.1-.04-.17-.04-.24a.43.43 0 0 1 .21-.42.01.01 0 0 1 .01 0l.09.29.01.05.01.05c.05.12.12.26.23.33.14.08.28.1.43.07a.84.84 0 0 0 .46-.32c.18-.22.15-.46.01-.7l.38-.02Z" fill="#D86436"/><path d="M9.43 9.85c.18.05.34.08.57.12-.02.02-.03.04-.02.08.04.13.1.25.15.38.06.15.2.48-.03.56-.24.08-.47-.12-.64-.26-.05-.04-.08-.07-.14-.03-.03.03-.08.08-.06.12a8.46 8.46 0 0 1 .75.76l.14.22H6.8a.01.01 0 0 1-.01 0v-1.78l.13.18c.14.2.29.37.45.53.17.16.37.3.6.34.13.03.3-.04.4-.13.19-.18.1-.48 0-.68l-.01-.02a1.68 1.68 0 0 1-.37-.54l-.04-.16a.23.23 0 0 1-.01-.06c0-.06 0-.11.03-.16a.98.98 0 0 1 .64-.47c-.16.19-.24.4-.26.65 0 .04 0 .1.02.13.11.3.41.38.7.36.12 0 .29-.03.36-.14Z" fill="#D54E33"/><path d="m8.4 9.56.01-.01c.12.02.24.03.35.02a1.28 1.28 0 0 0 .6-.22 5.5 5.5 0 0 1 .04.4c0 .1-.07.14-.16.16-.32.08-.75.02-.84-.35Z" fill="#fff"/><path d="M11.21 10.1v.1a.5.5 0 0 1-.18.16.46.46 0 0 1-.33.01 1.34 1.34 0 0 1-.45-.22 6.05 6.05 0 0 1-.21-.13 24.46 24.46 0 0 1 .17.43c.06.2.16.52-.12.6-.27.07-.5-.14-.7-.3h-.04l-.03.03a.03.03 0 0 0-.01.02.03.03 0 0 0 .01.02 8.3 8.3 0 0 1 .83.86.7.7 0 0 1 .06.11.09.09 0 0 1-.06.01 5.42 5.42 0 0 0-.9-.98c0-.04.04-.1.07-.12.06-.04.1 0 .14.03.17.15.4.34.64.26.22-.08.09-.4.03-.56-.05-.13-.11-.25-.15-.38 0-.04 0-.06.02-.08.05-.01.1 0 .13.02l.2.15c.1.07.22.13.34.17.14.04.28.05.39-.04a12.64 12.64 0 0 1 .15-.17Z" fill="#1F1B21"/><path d="M11.21 10.2v1.6a132.6 132.6 0 0 1-1 0 3.14 3.14 0 0 0-.44-.55 8.25 8.25 0 0 0-.46-.46l.01-.01.03-.03a.04.04 0 0 1 .05 0c.19.16.42.37.69.3.28-.08.18-.4.11-.6a24.72 24.72 0 0 0-.16-.43 6.26 6.26 0 0 0 .21.13c.14.1.28.18.45.22.11.03.22.04.33-.01a.5.5 0 0 0 .18-.17Z" fill="#fff"/><path d="M9 14.33a2.31 2.31 0 0 0 2.31-2.5h.64v.3a2.97 2.97 0 0 1-2.77 2.85h-.12a1.31 1.31 0 0 1-.12 0h-.12a2.95 2.95 0 0 1-2.76-3.15h.63c0 .15 0 .3.02.43A2.31 2.31 0 0 0 9 14.33Z" fill="#0000F5"/><path d="M11.2 11.89h.01v.13a2.22 2.22 0 0 1-2.2 2.21H9a2.19 2.19 0 0 1-2.2-2.2v-.14h4.42Z" fill="#EA3323"/><path d="M11.62 11.1V5.98a2.6 2.6 0 0 0-2.57-2.6 2.6 2.6 0 0 0-2.67 2.6v5.12c0 .1-.08.2-.19.2a.2.2 0 0 1-.19-.2V5.98A3 3 0 0 1 9.06 3 3 3 0 0 1 12 5.98v5.12c0 .1-.09.2-.2.2a.2.2 0 0 1-.18-.2Z" fill="#0000F5"/></svg>